<?xml version="1.0" encoding="UTF-8"?>
<svg id="Layer_1" data-name="Layer 1" xmlns="http://www.w3.org/2000/svg" xmlns:xlink="http://www.w3.org/1999/xlink" viewBox="0 0 720 720">
  <defs>
    <style>
      .cls-1 {
        fill: none;
      }

      .cls-1, .cls-2 {
        stroke-width: 0px;
      }

      .cls-3 {
        clip-path: url(#clippath);
      }

      .cls-2 {
        fill: #3aab58;
      }
    </style>
    <clipPath id="clippath">
      <rect class="cls-1" width="720" height="720"/>
    </clipPath>
  </defs>
  <g class="cls-3">
    <path class="cls-2" d="m375.53,386.04h-33.87l-2.7-18.39c-1.01,1.75-2.16,3.65-3.45,5.69-1.29,2.04-2.59,3.94-3.88,5.69-1.29,1.75-2.47,3.28-3.54,4.6-1.07,1.31-1.88,2.12-2.44,2.41h-72.12l59.82-102.48-.17.44c.34-.88,1.07-2.08,2.19-3.61,1.12-1.53,2.36-3.06,3.71-4.6,1.35-1.53,2.7-2.88,4.04-4.05,1.35-1.17,2.47-1.75,3.37-1.75h27.13c1.68,0,3.09.84,4.21,2.52,1.12,1.68,2.11,3.69,2.95,6.02.84,2.34,1.54,4.78,2.11,7.34.56,2.56,1.01,4.78,1.35,6.68l11.29,93.5Zm-64.2-33.94h26.29l-4.38-37.66-21.9,37.66Z"/>
    <path class="cls-2" d="m467.02,339.4l42.12-69.42h39.26l-60.32,102.04c-.56.88-1.38,2.08-2.44,3.61-1.07,1.53-2.27,3.07-3.62,4.6-1.35,1.53-2.69,2.88-4.04,4.05-1.35,1.17-2.59,1.75-3.71,1.75h-26.62c-1.57,0-2.89-.73-3.96-2.19-1.07-1.46-2.02-3.25-2.86-5.36-.84-2.12-1.52-4.41-2.02-6.9-.5-2.48-.93-4.74-1.26-6.79l.17.22c-.11-.29-.2-.73-.25-1.31-.06-.58-.14-1.02-.25-1.31l-10.45-92.41h33.02l7.25,69.42Z"/>
    <path class="cls-2" d="m599.96,269.99h98.06c-.9,2.34-2.44,5.4-4.63,9.2-2.19,3.8-4.49,7.55-6.91,11.28-2.42,3.72-4.75,6.93-6.99,9.63-2.25,2.7-3.88,4.05-4.89,4.05h-48.36l-5.05,18.18,8.59-10.95h44.65l-28.31,34.16h-31.68l-1.85,6.35h62.68c-.23.58-.65,1.61-1.26,3.07-.62,1.46-1.29,2.96-2.02,4.49-.73,1.53-1.41,2.96-2.02,4.27-.62,1.31-.98,2.05-1.09,2.19l.17-.44c-1.01,1.75-2.44,3.8-4.3,6.13-1.85,2.34-3.71,4.6-5.56,6.79-1.85,2.19-3.51,4.02-4.97,5.47-1.46,1.46-2.25,2.19-2.36,2.19h-84.92l33.02-116.06Z"/>
    <path class="cls-2" d="m209.69,362.93c10.05-30.55,20.11-61.09,30.81-93.62-17.03,3.61-32.81,6.5-48.35,10.39-14.59,3.65-28.8,8.79-43.39,12.4-7.87,1.95-12.76,6.31-16.06,13.21-3.23,6.76-6.45,13.53-9.97,20.9h54.05c-33.95,8.68-67.07,17.15-100.19,25.62.18.89.36,1.78.53,2.67h47.64c.05.41.1.82.16,1.23-14.67,2.41-29.34,4.82-44.01,7.23.04.62.07,1.24.11,1.86h42.31c.04.7.08,1.41.12,2.11-14.82,1.95-29.65,3.89-44.47,5.84,0,.38.02.76.02,1.15,14.43.82,28.86,1.64,43.3,2.46.06.33.13.67.19,1-14.63,2.38-29.26,4.77-43.89,7.15.05.48.11.95.17,1.43h44.14c.04.54.08,1.09.13,1.63-16.74,1.72-33.48,3.45-50.23,5.15-5.83.59-11.79.6-17.43,1.95-2.18.52-4.96,3.9-5.15,6.18-.29,3.42-.56,8.33,5.49,8.37,24.57.15,49.14.54,73.7.25,2.55-.03,5.69-3.58,7.48-6.23,14.38-21.3,42.83-20.99,55.31.8.5.88.68,1.93.93,2.65-5.57-1.54-11.13-4.68-16.24-4.06-5.27.64-11.15,3.91-14.89,7.82-8.12,8.47-8.07,22.25-1.25,31.7,6.56,9.09,14.94,10.41,29.6,4.65-7.07,11.97-19.28,18.08-32.07,16.06-14.68-2.32-23.42-12.71-28.64-34.32-5.78-1.34-9.53-.83-12.7,6.07-9.62,20.97-38.44,23.89-51.66,5.17-4.26-6.02-8.32-7.76-14.98-6.93-6.05.76-12.21.75-19.23,1.12,0-14.13-.22-28,.19-41.84.08-2.73,1.89-6.7,4.08-7.86,9.13-4.8,11.22-13.73,13.11-22.14,3.57-15.89,12.7-25.43,28.43-28.81,19.79-4.25,34.63-13.78,41.34-34.34,3.54-10.83,13.08-16.21,24.21-18.29,12.33-2.3,24.61-4.88,36.99-6.79,4.62-.71,7.3-1.94,9.04-6.79,11.03-30.74,32.99-47.96,65.4-52.38,2.68-.36,6.02-4.39,6.94-7.36,1.67-5.43,4.16-6.55,9.65-6.14,85.42,6.36,170.86,12.49,256.29,18.62,50.89,3.65,101.79,7.21,152.66,11.77-14.53,0-29.06.23-43.59-.05-31.52-.6-63.03-1.64-94.55-2.16-85.11-1.41-170.22-2.57-255.33-4.06-6.36-.11-9.77,1.43-12.66,7.63-18.98,40.67-38.49,81.08-57.85,121.57-1.43,2.98-3.01,5.89-4.52,8.83-.41-.16-.82-.31-1.23-.47m-125.72,67.83c7.6,10.15,19.09,9.49,25.67-1.52-8.78.52-16.94,1-25.67,1.52"/>
    <path class="cls-2" d="m278.74,259.35c3.79-7.56,6.46-13.98,10.2-19.69,1.14-1.75,5.26-2.29,7.96-2.18,54.32,2.41,108.63,5.05,162.94,7.52,45.66,2.08,91.32,3.99,137.01,7.49-105.52,2.27-211.04,4.55-318.11,6.85"/>
    <path class="cls-2" d="m155.7,360.49c-2.55,5.27-5.1,10.55-7.98,16.5h-8.66c-.8-15.59,11.66-25.21,32.62-25.8-4.55,5.08-9.25,10.32-13.53,15.09-.09-.95-.3-3.04-.51-5.14-.65-.22-1.29-.44-1.94-.65"/>
    <polygon class="cls-2" points="292.99 403.24 292.99 413.28 283.91 413.28 283.91 445.6 271.81 445.6 271.81 413.28 262.73 413.28 262.73 403.24 292.99 403.24"/>
    <path class="cls-2" d="m360.72,433.38h-.91v12.22h-11.74v-42.36h19.55c6.92,0,11.6,2.02,14.04,6.05,1.86,2.36,2.78,5.22,2.78,8.59v.73c0,6.86-3.64,11.48-10.92,13.86,5.81,7.46,9.73,11.84,11.77,13.13h-14.22c-1.96-1.25-5.41-5.33-10.35-12.22m-.91-20.21v10.17h5.51c3.79,0,5.97-.44,6.53-1.33.65-1.01.97-2.1.97-3.27,0-3.71-2.38-5.57-7.14-5.57h-5.87Z"/>
    <path class="cls-2" d="m448.72,439.55l-2.24,6.05h-12.83l16.94-42.36h10.89l16.95,42.36h-12.83l-2.15-6.05h-14.73Zm11.53-9.08l-3.99-11.25-4.18,11.25h8.17Z"/>
    <polygon class="cls-2" points="543.04 424.42 543.04 445.6 530.94 445.6 530.94 403.24 543.04 403.24 555.14 424.42 555.14 403.24 567.25 403.24 567.25 445.6 555.14 445.6 543.04 424.42"/>
    <path class="cls-2" d="m639.21,402.21c5.89,0,10.37,1.68,13.43,5.02,2.26,2.74,3.39,5.63,3.39,8.65h-10.77c-.2-1.25-.71-2.19-1.53-2.81-.82-.63-2.32-.94-4.52-.94-3.47,0-5.41.77-5.81,2.3,0,.04-.04.2-.12.48,0,1.8,2.14,3.09,6.41,3.87,5.93,1.41,9.84,2.78,11.74,4.12,4.03,2.26,6.05,5.61,6.05,10.04,0,5.75-3.07,9.83-9.2,12.22-2.64.89-5.47,1.33-8.47,1.33-4.7,0-8.73-1.13-12.1-3.39-3.13-2.32-5-4.82-5.63-7.5-.32-1.21-.48-2.62-.48-4.24h10.17c.81,2.1,1.72,3.43,2.74,3.99,1.02.57,2.55.85,4.58.85h1.45c3.67-.26,5.51-1.23,5.51-2.91,0-1.92-3.01-3.33-9.02-4.24-5.2-1.21-8.84-2.5-10.89-3.87-3.07-2.24-4.6-5.31-4.6-9.2,0-5.75,2.91-9.82,8.71-12.22,3.11-1.05,6.09-1.57,8.96-1.57"/>
  </g>
</svg>